# xmcd
#
# Track frame offsets:
#	150
#	20974
#	52644
#	79260
#	110994
#	130359
#	153564
#	180576
#	208964
#	229380
#	253121
#	274679
#	292294
#	317243
#
# Disc length: 4523 seconds
#
# Revision: 1
# Processed by: cddbd v1.5.2PL0 Copyright (c) Steve Scherf et al.
# Submitted via: FairStars CD Ripper 1.90
#
DISCID=df11a90e
DTITLE=Kenny Wayne Sheperd Band - Live In Chicago
DYEAR=2018
DGENRE=Blues
TTITLE0=Somehow, Somewhere,Someway
TTITLE1=Kings Highway
TTITLE2=True Lies
TTITLE3=Deja Voodoo
TTITLE4=Sell My Monkey
TTITLE5=Dance For Me Girl
TTITLE6=Baby Don't Say That No More
TTITLE7=Eye to Eye
TTITLE8=How Many More Years
TTITLE9=Sick and Tired
TTITLE10=Feed Me
TTITLE11=Rockin' Daddy
TTITLE12=Blue on Black
TTITLE13=King Bee
EXTD=
EXTT0=
EXTT1=
EXTT2=
EXTT3=
EXTT4=
EXTT5=
EXTT6=
EXTT7=
EXTT8=
EXTT9=
EXTT10=
EXTT11=
EXTT12=
EXTT13=
PLAYORDER=
